<svg xmlns="http://www.w3.org/2000/svg" xmlns:svg="http://www.w3.org/2000/svg" id="svg847" width="90" height="45" version="1.1" viewBox="0 0 23.813 11.906"><metadata id="metadata844"/><g id="layer1" transform="translate(0,-285.09375)"><g id="g947" transform="matrix(0.59275453,0,0,0.59470058,-19.614155,274.60623)" style="stroke-width:.89126295;stroke-miterlimit:4;stroke-dasharray:none"><circle id="path906" cx="43.131" cy="27.626" r="6.247" style="opacity:1;fill:none;fill-opacity:.13131313;fill-rule:evenodd;stroke:#000;stroke-width:.89126295;stroke-linecap:butt;stroke-linejoin:miter;stroke-miterlimit:4;stroke-dasharray:none;stroke-opacity:1"/><path id="path908" d="M 37.372395,25.471354 H 48.947916" style="fill:none;stroke:#000;stroke-width:.89126295;stroke-linecap:butt;stroke-linejoin:miter;stroke-miterlimit:4;stroke-dasharray:none;stroke-opacity:1"/><path id="path908-7" d="M 37.372396,29.67633 H 48.947917" style="fill:none;stroke:#000;stroke-width:.89126295;stroke-linecap:butt;stroke-linejoin:miter;stroke-miterlimit:4;stroke-dasharray:none;stroke-opacity:1"/><path id="path925" d="m 44.223214,21.597097 c 3.527536,5.488332 0.188987,12.284227 0.188987,12.284227" style="fill:none;stroke:#000;stroke-width:.89126295;stroke-linecap:butt;stroke-linejoin:miter;stroke-miterlimit:4;stroke-dasharray:none;stroke-opacity:1"/><path id="path925-6" d="m 42.477444,21.57479 c -3.527536,5.488332 -0.188987,12.284227 -0.188987,12.284227" style="fill:none;stroke:#000;stroke-width:.89126295;stroke-linecap:butt;stroke-linejoin:miter;stroke-miterlimit:4;stroke-dasharray:none;stroke-opacity:1"/></g><g style="stroke-width:1.38337171" id="g1342" transform="matrix(0.70145257,0,0,0.74494447,-26.412024,270.85942)"><path id="path1239" d="m 62.944281,23.165712 c 1.678002,-0.06108 3.531902,1.822675 3.529994,3.3454 -0.0019,1.522724 -1.113204,2.241416 -1.8308,3.38431 -0.15343,0.244365 -0.184306,1.523148 -0.184306,1.523148 h -2.526756 c 0,0 -0.09024,-1.0102 -0.304144,-1.458344 -0.54132,-1.134125 -1.859925,-1.816724 -1.872779,-3.343907 -0.01285,-1.527183 1.510788,-3.389519 3.188791,-3.450607 z" style="fill:none;stroke:#000;stroke-width:.73203433;stroke-linecap:butt;stroke-linejoin:miter;stroke-miterlimit:4;stroke-dasharray:none;stroke-opacity:1"/><rect id="rect1241" width="2.846" height=".634" x="61.782" y="31.91" rx=".317" ry=".296" style="opacity:1;fill:#000;fill-opacity:1;fill-rule:evenodd;stroke:none;stroke-width:.3660171;stroke-linecap:butt;stroke-linejoin:miter;stroke-miterlimit:4;stroke-dasharray:none;stroke-opacity:1"/><rect id="rect1241-3" width="1.999" height=".634" x="62.153" y="32.68" rx=".317" ry=".296" style="opacity:1;fill:#000;fill-opacity:1;fill-rule:evenodd;stroke:none;stroke-width:.3660171;stroke-linecap:butt;stroke-linejoin:miter;stroke-miterlimit:4;stroke-dasharray:none;stroke-opacity:1"/><rect id="rect1258" width="1.856" height=".608" x="66.916" y="26.303" rx=".304" ry=".284" style="opacity:1;fill:#000;fill-opacity:1;fill-rule:evenodd;stroke:none;stroke-width:.3660171;stroke-linecap:butt;stroke-linejoin:miter;stroke-miterlimit:4;stroke-dasharray:none;stroke-opacity:1"/><rect id="rect1258-8" width="1.856" height=".608" x="57.456" y="26.232" rx=".304" ry=".284" style="opacity:1;fill:#000;fill-opacity:1;fill-rule:evenodd;stroke:none;stroke-width:.3660171;stroke-linecap:butt;stroke-linejoin:miter;stroke-miterlimit:4;stroke-dasharray:none;stroke-opacity:1"/><rect id="rect1258-85" width="1.856" height=".608" x="69.025" y="-20.506" rx=".295" ry=".292" transform="rotate(40.454484)" style="opacity:1;fill:#000;fill-opacity:1;fill-rule:evenodd;stroke:none;stroke-width:.3660171;stroke-linecap:butt;stroke-linejoin:miter;stroke-miterlimit:4;stroke-dasharray:none;stroke-opacity:1"/><rect id="rect1258-85-8" width="1.856" height=".608" x="-27.002" y="61.6" rx=".295" ry=".292" transform="matrix(-0.76092165,0.64884377,0.64884377,0.76092165,0,0)" style="opacity:1;fill:#000;fill-opacity:1;fill-rule:evenodd;stroke:none;stroke-width:.3660171;stroke-linecap:butt;stroke-linejoin:miter;stroke-miterlimit:4;stroke-dasharray:none;stroke-opacity:1"/><rect id="rect1258-85-3" width="1.856" height=".608" x="21.341" y="-63.193" rx=".284" ry=".304" transform="rotate(89.584127)" style="opacity:1;fill:#000;fill-opacity:1;fill-rule:evenodd;stroke:none;stroke-width:.3660171;stroke-linecap:butt;stroke-linejoin:miter;stroke-miterlimit:4;stroke-dasharray:none;stroke-opacity:1"/><rect id="rect1258-85-7" width="1.856" height=".608" x="-29.765" y="63.965" rx=".293" ry=".294" transform="matrix(-0.68768938,0.72600504,0.72600504,0.68768938,0,0)" style="opacity:1;fill:#000;fill-opacity:1;fill-rule:evenodd;stroke:none;stroke-width:.3660171;stroke-linecap:butt;stroke-linejoin:miter;stroke-miterlimit:4;stroke-dasharray:none;stroke-opacity:1"/><rect id="rect1258-85-7-9" width="1.856" height=".608" x="57.023" y="-27.859" rx=".293" ry=".294" transform="rotate(46.55252)" style="opacity:1;fill:#000;fill-opacity:1;fill-rule:evenodd;stroke:none;stroke-width:.3660171;stroke-linecap:butt;stroke-linejoin:miter;stroke-miterlimit:4;stroke-dasharray:none;stroke-opacity:1"/></g></g></svg>